<?xml version="1.0" encoding="UTF-8" standalone="no"?>
<!-- Created with Inkscape (http://www.inkscape.org/) -->

<svg
   xmlns:dc="http://purl.org/dc/elements/1.1/"
   xmlns:cc="http://creativecommons.org/ns#"
   xmlns:rdf="http://www.w3.org/1999/02/22-rdf-syntax-ns#"
   xmlns:svg="http://www.w3.org/2000/svg"
   xmlns="http://www.w3.org/2000/svg"
   xmlns:sodipodi="http://sodipodi.sourceforge.net/DTD/sodipodi-0.dtd"
   xmlns:inkscape="http://www.inkscape.org/namespaces/inkscape"
   width="256"
   height="256"
   viewBox="0 0 67.733332 67.733335"
   version="1.1"
   id="svg8"
   inkscape:version="0.92.4 (5da689c313, 2019-01-14)"
   sodipodi:docname="Wikipedia - Kopie.svg"
   inkscape:export-filename="C:\Users\samu\Documents\Rainmeter\Skins\SearchBar_ReExtendable_2.01\@Resources\plugins\wikipedia\icon\png\256x256.png"
   inkscape:export-xdpi="96"
   inkscape:export-ydpi="96">
  <defs
     id="defs2" />
  <sodipodi:namedview
     id="base"
     pagecolor="#ffffff"
     bordercolor="#666666"
     borderopacity="1.0"
     inkscape:pageopacity="0.0"
     inkscape:pageshadow="2"
     inkscape:zoom="1.2439613"
     inkscape:cx="-43.360852"
     inkscape:cy="82.847264"
     inkscape:document-units="px"
     inkscape:current-layer="layer1"
     showgrid="false"
     inkscape:window-width="1920"
     inkscape:window-height="1018"
     inkscape:window-x="-8"
     inkscape:window-y="-8"
     inkscape:window-maximized="1"
     showguides="true"
     inkscape:guide-bbox="true"
     units="px"
     inkscape:snap-smooth-nodes="true" />
  <metadata
     id="metadata5">
    <rdf:RDF>
      <cc:Work
         rdf:about="">
        <dc:format>image/svg+xml</dc:format>
        <dc:type
           rdf:resource="http://purl.org/dc/dcmitype/StillImage" />
        <dc:title />
      </cc:Work>
    </rdf:RDF>
  </metadata>
  <g
     inkscape:label="Ebene 1"
     inkscape:groupmode="layer"
     id="layer1"
     transform="translate(0,-229.26665)">
    <g
       id="g870"
       style="fill:#ffe6d5"
       transform="matrix(0.98438297,0,0,1.0728794,0.57372926,-20.249519)">
      <path
         sodipodi:nodetypes="cccsssscccssc"
         inkscape:connector-curvature="0"
         id="rect814"
         d="m 4.8650926,246.09674 10.0916884,-1.9063 36.408589,0.23101 11.404885,3.03693 c 1.273573,0.33914 2.506824,1.10008 2.374106,2.45097 l -2.901676,29.53569 c -0.132718,1.3509 -1.065922,2.31034 -2.374106,2.45097 l -14.062355,1.51166 -29.266711,0.66696 -10.3554764,-1.36164 c 0,0 -2.3176879,-1.09438 -2.3741057,-2.45096 l -1.318944,-31.71432 c -0.056423,-1.35659 2.3741057,-2.45097 2.3741057,-2.45097 z"
         style="fill:#ffe6d5;stroke:#000000;stroke-width:1.99362993;stroke-miterlimit:4;stroke-dasharray:none" />
      <path
         sodipodi:nodetypes="cc"
         inkscape:connector-curvature="0"
         id="path817"
         d="m 32.894414,244.53267 v 38.94306"
         style="fill:#ffe6d5;stroke:#000000;stroke-width:0.33341253px;stroke-linecap:butt;stroke-linejoin:miter;stroke-opacity:1" />
      <path
         inkscape:connector-curvature="0"
         id="path843"
         d="m 5.740807,255.00045 c 0.175859,-0.36311 0.3517181,-0.72621 0.5275771,-1.08932 0.087934,0 0.2016135,0.0642 0.263788,0 0.062174,-0.0641 -0.062174,-0.20814 0,-0.27232 0.1243519,-0.12839 0.403227,0.12837 0.5275789,0 0.062174,-0.0642 -0.062174,-0.20814 0,-0.27234 0.062174,-0.0641 0.1851417,0.0406 0.2637881,0 0.1112238,-0.0574 0.1525651,-0.21491 0.263789,-0.27233 0.1572927,-0.0812 0.4032251,0.12838 0.527577,0 0.062174,-0.0641 -0.062174,-0.20813 0,-0.27232 0.124351,-0.12838 0.403227,0.12837 0.527578,0 0.062174,-0.0641 -0.062174,-0.20814 0,-0.27233 0.124351,-0.12837 0.3702842,0.0812 0.527577,0 0.1112239,-0.0574 0.1525661,-0.21492 0.263789,-0.27233 0.1572928,-0.0812 0.3702833,0.0811 0.527578,0 0.1112229,-0.0574 0.1525649,-0.21492 0.2637879,-0.27233 0.104589,-0.054 0.737439,0.0557 0.791366,0 0.06217,-0.0642 -0.06217,-0.20814 0,-0.27233 0.06217,-0.0641 0.175859,0 0.263788,0 0.08793,0 0.175861,0 0.26379,0 0.791367,0 1.582732,0 2.374098,0 0.527578,0 1.055155,0 1.582732,0 0.118802,0 0.711087,-0.0414 0.791367,0 0.111224,0.0574 0.152566,0.21491 0.263789,0.27233 0.104588,0.054 0.737438,-0.0557 0.791366,0 0.06217,0.0641 -0.06217,0.20813 0,0.27233 0.131895,0.13616 0.659472,-0.13616 0.791366,0 0.06217,0.0642 -0.06217,0.20814 0,0.27233 0.05392,0.0557 0.686777,-0.054 0.791367,0 0.111223,0.0574 0.152566,0.21492 0.263789,0.27233 0.157292,0.0812 0.403226,-0.12838 0.527577,0 0.06217,0.0641 -0.06217,0.20814 0,0.27232 0.06217,0.0641 0.17586,0 0.263789,0 0.615507,0 1.231014,0 1.846522,0 0.06397,0 0.782882,0.009 0.791365,0 0.06217,-0.0641 -0.06217,-0.20813 0,-0.27232 0.124352,-0.12838 0.370286,0.0812 0.527577,0 0.111223,-0.0574 0.152568,-0.21493 0.263789,-0.27233 0.07865,-0.0406 0.201613,0.0641 0.26379,0 0.06217,-0.0642 -0.06217,-0.20815 0,-0.27233 0.12435,-0.12838 0.403225,0.12837 0.527578,0 0.06217,-0.0641 -0.06217,-0.20814 0,-0.27233 0.01054,-0.0115 0.95828,0 1.055154,0 0.06397,0 0.782883,-0.009 0.791367,0 0.06217,0.0641 -0.06217,0.20813 0,0.27233 0.124348,0.12837 0.370282,-0.0812 0.527578,0 0.111223,0.0574 0.152564,0.21492 0.263787,0.27233 0.157291,0.0812 0.403226,-0.12837 0.527579,0 0.06217,0.0641 -0.06217,0.20814 0,0.27233 0.12435,0.12837 0.403225,-0.12838 0.527575,0 0.06217,0.0641 -0.06217,0.20814 0,0.27232 0.124353,0.12838 0.403229,-0.12837 0.527579,0 0.351719,0.36311 -0.439647,0.27233 0.263791,0.27233"
         style="fill:#ffe6d5;stroke:#000000;stroke-width:0.33341253px;stroke-linecap:butt;stroke-linejoin:miter;stroke-opacity:1" />
      <path
         inkscape:connector-curvature="0"
         id="path845"
         d="m 35.532305,255.42584 c 0.351716,-0.27234 0.744273,-0.49604 1.055152,-0.81698 0.06217,-0.0641 -0.06217,-0.20816 0,-0.27234 0.06217,-0.0641 0.201615,0.0642 0.263789,0 0.06217,-0.0641 -0.06217,-0.20814 0,-0.27232 0.06217,-0.0642 0.18514,0.0406 0.263791,0 0.111223,-0.0574 0.152562,-0.21493 0.263787,-0.27234 0.07864,-0.0406 0.18514,0.0406 0.263787,0 0.111224,-0.0574 0.152567,-0.21491 0.263791,-0.27233 0.07864,-0.0406 0.175859,0 0.263788,0 0.08793,-0.0908 0.152567,-0.21492 0.263788,-0.27232 0.157295,-0.0812 0.370285,0.0812 0.527578,0 0.111224,-0.0574 0.152567,-0.21493 0.263788,-0.27233 0.104588,-0.054 0.737439,0.0557 0.791369,0 0.06217,-0.0642 -0.06217,-0.20815 0,-0.27233 0.06217,-0.0641 0.175858,0 0.263787,0 0.08793,0 0.175859,0 0.263787,0 1.055158,0 2.110311,0 3.165465,0 0.615508,0 1.231016,0 1.846524,0 0.1188,0 0.711085,-0.0414 0.791365,0 0.111224,0.0574 0.152566,0.21492 0.263787,0.27233 0.157296,0.0812 0.40323,-0.12837 0.527579,0 0.06217,0.0641 -0.06217,0.20814 0,0.27233 0.131894,0.13616 0.659472,-0.13617 0.791366,0 0.06217,0.0641 -0.06217,0.20814 0,0.27232 0.124353,0.12838 0.403225,-0.12837 0.527579,0 0.06217,0.0641 -0.06217,0.20815 0,0.27233 0.131894,0.13617 0.659472,-0.13616 0.791365,0 0.06217,0.0641 -0.06217,0.20814 0,0.27234 0.12435,0.12837 0.370283,-0.0812 0.527578,0 0.111224,0.0574 0.152564,0.21491 0.263789,0.27232 0.07864,0.0406 0.201613,-0.0641 0.263787,0 0.06217,0.0642 -0.06217,0.20813 0,0.27234 0.124353,0.12836 0.403229,-0.12839 0.527578,0 0.06217,0.0641 -0.03933,0.19113 0,0.27232 0.548915,1.13337 -0.01821,-0.29114 0.527579,0.27232 0.06217,0.0641 -0.06217,0.20816 0,0.27234 0.12435,0.12837 0.370282,-0.0812 0.527575,0 0.111224,0.0574 0.152567,0.21491 0.263792,0.27233 0.07864,0.0406 0.175857,0 0.263787,0 0.08793,0 0.175857,0 0.263787,0 0.527578,0 1.055157,0 1.582736,0 0.08793,0 0.201611,0.0641 0.263787,0 0.06217,-0.0642 -0.06217,-0.20815 0,-0.27233 0.12435,-0.12839 0.403225,0.12837 0.527579,0 0.06217,-0.0641 -0.06217,-0.20814 0,-0.27234 0.12435,-0.12837 0.403225,0.12839 0.527574,0 0.06217,-0.0641 -0.06217,-0.20813 0,-0.27232 0.06217,-0.0641 0.201614,0.0641 0.263791,0 0.06217,-0.0641 -0.06217,-0.20813 0,-0.27232 0.12435,-0.12839 0.403226,0.12836 0.527576,0 0.06217,-0.0641 -0.06217,-0.20816 0,-0.27234 0.124352,-0.12837 0.403228,0.12838 0.527578,0 0.06217,-0.0641 -0.06217,-0.20814 0,-0.27232 0.124353,-0.12839 0.403226,0.12837 0.527579,0 0.06217,-0.0642 -0.06217,-0.20814 0,-0.27234 0.06347,-0.0656 0.991678,0.0656 1.055154,0 0.06217,-0.0641 -0.06217,-0.20814 0,-0.27233 0.06217,-0.0641 0.175857,0 0.263791,0 0.08793,0 0.175857,0 0.263787,0"
         style="fill:#ffe6d5;stroke:#000000;stroke-width:0.33341253px;stroke-linecap:butt;stroke-linejoin:miter;stroke-opacity:1" />
      <path
         inkscape:connector-curvature="0"
         id="path847"
         d="m 5.9879633,264.14036 c 0.351719,-0.18154 0.703437,-0.3631 1.055155,-0.54466 0,-0.0908 -0.062174,-0.20814 0,-0.27232 0.062174,-0.0642 0.1851426,0.0406 0.263789,0 0.1112229,-0.0574 0.1525661,-0.21491 0.263788,-0.27233 0.078645,-0.0406 0.2016135,0.0641 0.26379,0 0.062174,-0.0641 -0.062174,-0.20815 0,-0.27234 0.062174,-0.0641 0.2016125,0.0642 0.263788,0 0.062174,-0.0641 -0.062174,-0.20813 0,-0.27232 0.062174,-0.0641 0.2016135,0.0642 0.263789,0 0.062174,-0.0641 -0.062174,-0.20813 0,-0.27233 0.062174,-0.0642 0.1851417,0.0406 0.263788,0 0.2224468,-0.11485 0.3051322,-0.42983 0.5275771,-0.54465 0.078644,-0.0406 0.2016135,0.0641 0.2637899,0 0.062174,-0.0641 -0.062174,-0.20815 0,-0.27234 0.062174,-0.0641 0.2016126,0.0642 0.263789,0 0.062174,-0.0641 -0.062174,-0.20813 0,-0.27232 0.062174,-0.0641 0.2016138,0.0642 0.2637883,0 0.062174,-0.0641 -0.062174,-0.20815 0,-0.27234 0.062174,-0.0641 0.2016134,0.0641 0.2637894,0 0.06217,-0.0641 -0.06217,-0.20813 0,-0.27232 0.12435,-0.12838 0.403226,0.12837 0.527577,0 0.06217,-0.0641 -0.06217,-0.20814 0,-0.27233 0.06217,-0.0641 0.201613,0.0641 0.263788,0 0.06217,-0.0641 -0.06217,-0.20815 0,-0.27233 0.06217,-0.0641 0.175859,0 0.263789,0 0.124376,0 1.306988,-0.0128 1.318944,0 0.06217,0.0641 -0.06217,0.20814 0,0.27233 0.06217,0.0641 0.201614,-0.0641 0.263788,0 0.06217,0.0641 -0.06217,0.20814 0,0.27233 0.06217,0.0641 0.201614,-0.0641 0.263789,0 0.124351,0.12837 -0.124351,0.41628 0,0.54466 0.06217,0.0642 0.185142,-0.0406 0.263788,0 0.111224,0.0574 0.17586,0.18154 0.263789,0.27232 0.08793,0.0908 0.208179,0.15752 0.26379,0.27234 0.03933,0.0812 -0.06217,0.20814 0,0.27233 0.06217,0.0641 0.185142,-0.0406 0.263788,0 1.097826,0.56668 -0.281999,-0.0189 0.263789,0.54465 0.124351,0.12837 0.403227,-0.12838 0.527577,0 0.06217,0.0642 -0.06217,0.20815 0,0.27232 0.06217,0.0642 0.201614,-0.0641 0.263789,0 0.06217,0.0642 -0.06217,0.20815 0,0.27234 0.06348,0.0656 0.991679,-0.0655 1.055155,0 0.06217,0.0641 -0.06217,0.20814 0,0.27233 0.06217,0.0641 0.17586,0 0.263789,0 0.703437,0 1.406874,0 2.11031,0 0.703437,0 1.406874,0 2.110311,0 0.118801,0 0.711085,0.0414 0.791366,0 0.111222,-0.0574 0.152563,-0.21491 0.263788,-0.27233 0.157295,-0.0811 0.403225,0.12838 0.527578,0 0.06217,-0.0641 -0.06217,-0.20815 0,-0.27234 0.12435,-0.12836 0.403226,0.12839 0.527578,0 0.06217,-0.0641 -0.06217,-0.20813 0,-0.27232 0.06347,-0.0656 0.991678,0.0656 1.055155,0 0.06217,-0.0641 -0.06217,-0.20813 0,-0.27233 0.0926,-0.0957 1.136736,0.0941 1.318944,0 0.111222,-0.0574 0.152563,-0.21491 0.263787,-0.27232 0.143103,-0.0739 0.982975,0.0745 1.055158,0 0.06217,-0.0641 -0.06217,-0.20815 0,-0.27233 0.02638,-0.0273 0.764985,-0.0273 0.791365,0 0.06217,0.0641 0,0.18155 0,0.27233"
         style="fill:#ffe6d5;stroke:#000000;stroke-width:0.33341253px;stroke-linecap:butt;stroke-linejoin:miter;stroke-opacity:1" />
      <path
         inkscape:connector-curvature="0"
         id="path849"
         d="m 37.115037,265.22968 c 1.24351,0.0779 -0.310881,-1.0407 0,-1.36164 0.06217,-0.0642 0.20161,0.0641 0.263787,0 0.06217,-0.0642 -0.06217,-0.20814 0,-0.27234 0.06217,-0.0641 0.201614,0.0641 0.263787,0 0.06217,-0.0641 -0.06217,-0.20814 0,-0.27232 0.06217,-0.0642 0.185144,0.0406 0.263791,0 0.111224,-0.0574 0.152564,-0.21491 0.263788,-0.27233 0.07864,-0.0406 0.201614,0.0641 0.263788,0 0.06217,-0.0641 -0.06217,-0.20815 0,-0.27234 0.124353,-0.12836 0.403229,0.12839 0.527578,0 0.06217,-0.0641 -0.06217,-0.20813 0,-0.27232 0.06217,-0.0641 0.201613,0.0642 0.263788,0 0.06217,-0.0641 -0.06217,-0.20813 0,-0.27233 0.131897,-0.13616 0.659472,0.13617 0.791369,0 0.06217,-0.0642 -0.06217,-0.20814 0,-0.27232 0.131894,-0.13617 0.659469,0.13616 0.791366,0 0.06217,-0.0641 -0.06217,-0.20815 0,-0.27233 0.131894,-0.13617 0.659468,0.13616 0.791366,0 0.06217,-0.0641 -0.06217,-0.20815 0,-0.27234 0.06217,-0.0641 0.175858,0 0.263788,0 0.703437,0 1.406873,0 2.11031,0 0.183474,0 1.223547,-0.0493 1.318944,0 0.111224,0.0574 0.152564,0.21491 0.263789,0.27234 0.104588,0.054 0.737437,-0.0557 0.791365,0 0.06217,0.0641 -0.06217,0.20814 0,0.27233 0.12435,0.12838 0.403226,-0.12839 0.527578,0 0.06217,0.0641 -0.06217,0.20813 0,0.27232 0.12435,0.12838 0.370283,-0.0811 0.527576,0 0.111224,0.0574 0.152566,0.21492 0.263791,0.27233 0.07864,0.0406 0.18514,-0.0406 0.263787,0 0.111224,0.0574 0.152567,0.21492 0.263788,0.27232 0.07864,0.0406 0.201614,-0.0641 0.263791,0 0.06217,0.0642 -0.06217,0.20815 0,0.27234 0.12435,0.12838 0.403225,-0.12838 0.527578,0 0.06217,0.0641 -0.06217,0.20814 0,0.27233 0.06217,0.0641 0.20161,-0.0642 0.263787,0 0.06217,0.0641 -0.06217,0.20813 0,0.27232 0.12435,0.12838 0.403226,-0.12837 0.527578,0 0.06217,0.0641 -0.06217,0.20815 0,0.27234 0.131895,0.13617 0.65947,-0.13617 0.791367,0 0.06217,0.0641 -0.06217,0.20814 0,0.27232 0.0084,0.009 0.727388,0 0.791366,0 0.124376,0 1.306986,0.0128 1.318941,0 0.06217,-0.0641 -0.06217,-0.20813 0,-0.27232 0.124354,-0.12838 0.403228,0.12837 0.527578,0 0.06217,-0.0642 -0.06217,-0.20814 0,-0.27234 0.06217,-0.0641 0.201615,0.0641 0.263791,0 0.06217,-0.0641 -0.06217,-0.20814 0,-0.27232 0.12435,-0.12838 0.403226,0.12837 0.527576,0 0.06217,-0.0642 -0.06217,-0.20814 0,-0.27233 0.06217,-0.0641 0.201613,0.0641 0.263791,0 0.06217,-0.0641 -0.06217,-0.20815 0,-0.27234 0.351717,-0.3631 0.263787,0.45389 0.263787,-0.27232"
         style="fill:#ffe6d5;stroke:#000000;stroke-width:0.33341253px;stroke-linecap:butt;stroke-linejoin:miter;stroke-opacity:1" />
      <path
         inkscape:connector-curvature="0"
         id="path851"
         d="m 8.0982733,272.58256 c 0.351718,-0.0908 0.703436,-0.18154 1.0551541,-0.27232 0,-0.0908 -0.062174,-0.20814 0,-0.27234 0.1750111,-0.18068 0.3525687,0.18068 0.5275789,0 0.062174,-0.0642 -0.062174,-0.20814 0,-0.27232 0.062174,-0.0641 0.1851419,0.0406 0.2637883,0 0.1112234,-0.0574 0.1525654,-0.21492 0.2637894,-0.27233 0.07864,-0.0406 0.201613,0.0641 0.263787,0 0.06217,-0.0641 -0.06217,-0.20815 0,-0.27233 0.124351,-0.12837 0.403227,0.12838 0.527578,0 0.06217,-0.0641 -0.06217,-0.20814 0,-0.27232 0.06217,-0.0641 0.185143,0.0406 0.263789,0 0.111224,-0.0574 0.152566,-0.21493 0.263788,-0.27234 0.07865,-0.0406 0.201615,0.0641 0.263789,0 0.06217,-0.0641 -0.06217,-0.20814 0,-0.27233 0.124351,-0.12838 0.403227,0.12838 0.527578,0 0.06217,-0.0642 -0.06217,-0.20813 0,-0.27232 0.124352,-0.12838 0.403226,0.12837 0.527577,0 0.06217,-0.0642 -0.06217,-0.20815 0,-0.27234 0.05392,-0.0557 0.686777,0.054 0.791366,0 0.111223,-0.0574 0.152567,-0.21491 0.26379,-0.27232 0.157293,-0.0812 0.403226,0.12837 0.527577,0 0.06217,-0.0641 -0.06217,-0.20815 0,-0.27233 0.06217,-0.0642 0.175859,0 0.263788,0 0.527578,0 1.055156,0 1.582733,0 0.439648,0 0.879296,0 1.318944,0 0.08793,0 0.201613,-0.0642 0.263789,0 0.06217,0.0641 -0.06217,0.20813 0,0.27233 0.124351,0.12837 0.403227,-0.12838 0.527578,0 0.06217,0.0642 -0.06217,0.20813 0,0.27232 0.06217,0.0641 0.201612,-0.0641 0.263788,0 0.06217,0.0641 0,0.18156 0,0.27234 0.08793,0 0.201614,-0.0642 0.263789,0 0.06217,0.0641 -0.06217,0.20814 0,0.27232 0.06217,0.0641 0.201613,-0.0642 0.263789,0 0.06217,0.0641 -0.06217,0.20814 0,0.27233 0.06217,0.0641 0.201613,-0.0641 0.263789,0 0.06217,0.0641 -0.06217,0.20813 0,0.27234 0.12435,0.12837 0.403226,-0.12839 0.527577,0 0.06217,0.0641 -0.06217,0.20813 0,0.27232 0.0119,0.0128 1.194569,0 1.318943,0 0.124375,0 1.306989,0.0128 1.318944,0 0.06217,-0.0641 -0.06217,-0.20814 0,-0.27232 0.06347,-0.0656 0.99168,0.0655 1.055156,0 0.06217,-0.0641 -0.06217,-0.20815 0,-0.27234 0.06348,-0.0656 0.991678,0.0655 1.055154,0 0.06217,-0.0641 -0.06217,-0.20814 0,-0.27233 0.08168,-0.0844 1.237262,0.0844 1.318945,0 0.06217,-0.0642 -0.06217,-0.20813 0,-0.27232 0.0119,-0.0128 1.194568,0 1.318944,0"
         style="fill:#ffe6d5;stroke:#000000;stroke-width:0.33341253px;stroke-linecap:butt;stroke-linejoin:miter;stroke-opacity:1" />
      <path
         inkscape:connector-curvature="0"
         id="path853"
         d="m 36.851246,274.49681 c 0.351719,-0.0908 0.730888,-0.10499 1.055156,-0.27232 0.07864,-0.0406 -0.06217,-0.20814 0,-0.27234 0.06217,-0.0642 0.175859,0 0.263788,0 0.175859,0 0.370282,0.0812 0.527578,0 0.07864,-0.0406 -0.06217,-0.20814 0,-0.27232 0.12435,-0.12839 0.403226,0.12836 0.527576,0 0.06217,-0.0641 -0.06217,-0.20814 0,-0.27233 0.124352,-0.12838 0.403228,0.12837 0.527578,0 0.06217,-0.0641 -0.06217,-0.20815 0,-0.27233 0.124354,-0.12837 0.370287,0.0812 0.527578,0 0.111224,-0.0574 0.152568,-0.21491 0.263787,-0.27232 0.07864,-0.0406 0.185142,0.0406 0.263792,0 0.111223,-0.0574 0.152563,-0.21493 0.263788,-0.27234 0.157292,-0.0812 0.403225,0.12838 0.527578,0 0.06217,-0.0641 -0.06217,-0.20814 0,-0.27233 0.05392,-0.0557 0.686774,0.054 0.791366,0 0.111223,-0.0574 0.152564,-0.21492 0.263787,-0.27232 0.07864,-0.0406 0.185142,0.0406 0.263789,0 0.111223,-0.0574 0.152566,-0.21493 0.263789,-0.27234 0.211029,-0.10896 0.580335,0.10896 0.791367,0 0.111224,-0.0574 0.152564,-0.21491 0.263787,-0.27232 0.0954,-0.0493 1.13547,0 1.318946,0 0.439648,0 0.879295,0 1.318943,0 0.08793,0 0.201611,-0.0641 0.263788,0 0.06217,0.0642 -0.06217,0.20813 0,0.27232 0.06217,0.0641 0.175859,0 0.263788,0 0,0.0908 -0.06217,0.20815 0,0.27234 0.06217,0.0641 0.201613,-0.0642 0.263791,0 0.06217,0.0641 -0.06217,0.20814 0,0.27232 0.06217,0.0641 0.201611,-0.0642 0.263787,0 0.06217,0.0641 -0.06217,0.20814 0,0.27233 0.06217,0.0641 0.201613,-0.0641 0.263788,0 0.06217,0.0641 -0.06217,0.20813 0,0.27234 0.06217,0.0641 0.201614,-0.0641 0.263791,0 0.06217,0.0641 -0.06217,0.20813 0,0.27232 0.12435,0.12838 0.403225,-0.12837 0.527578,0 0.06217,0.0642 -0.06217,0.20813 0,0.27233 0.06217,0.0641 0.20161,-0.0641 0.263787,0 0.06217,0.0641 -0.06217,0.20815 0,0.27233 0.06217,0.0641 0.185142,-0.0406 0.263789,0 0.111223,0.0574 0.152566,0.21491 0.263789,0.27232 0.104589,0.054 0.737437,-0.0557 0.791367,0 0.06217,0.0641 -0.06217,0.20815 0,0.27234 0.0084,0.009 0.727388,0 0.791366,0 1.406874,0 2.813744,0 4.220617,0 0.06399,0 0.782884,0.009 0.791367,0 0.06217,-0.0641 -0.06217,-0.20814 0,-0.27234 0.351719,-0.3631 0.263791,0.45388 0.263791,-0.27232"
         style="fill:#ffe6d5;stroke:#000000;stroke-width:0.33341253px;stroke-linecap:butt;stroke-linejoin:miter;stroke-opacity:1" />
      <path
         inkscape:connector-curvature="0"
         id="path855"
         d="m 11.527526,277.48449 c -0.134804,-1.64384 1.00191,0.055 1.318944,-0.27234 0.06217,-0.0641 -0.06217,-0.20814 0,-0.27232 0.124352,-0.12839 0.403227,0.12837 0.527577,0 0.06217,-0.0641 -0.06217,-0.20814 0,-0.27234 0.06217,-0.0642 0.201614,0.0641 0.263789,0 0.06217,-0.0642 -0.06217,-0.20813 0,-0.27232 0.124352,-0.12839 0.403227,0.12838 0.527578,0 0.06217,-0.0642 -0.06217,-0.20814 0,-0.27233 0.06217,-0.0641 0.185143,0.0406 0.263789,0 0.111223,-0.0574 0.160323,-0.20112 0.263788,-0.27233 0.163596,-0.11254 0.341051,-0.20814 0.527578,-0.27232 0.166834,-0.0574 0.403227,0.12837 0.527578,0 0.06217,-0.0641 -0.06217,-0.20814 0,-0.27234 0.06217,-0.0641 0.185142,0.0406 0.263788,0 0.222447,-0.11485 0.305132,-0.42984 0.527578,-0.54465 0.104589,-0.054 0.737439,0.0557 0.791366,0 0.351719,-0.36311 -0.439648,-0.27234 0.263789,-0.27234 0.06397,0 0.782883,0.009 0.791367,0 0.06217,-0.0641 -0.06217,-0.20814 0,-0.27232 0.06217,-0.0641 0.175859,0 0.263788,0 0.118802,0 0.711087,-0.0414 0.791367,0 0.111223,0.0574 0.175859,0.18155 0.263789,0.27232 0.08793,0.0908 0.208177,0.15751 0.263788,0.27234 0.03933,0.0812 -0.06217,0.20814 0,0.27232 0.06217,0.0642 0.201612,-0.0641 0.263789,0 0.06217,0.0642 -0.06217,0.20814 0,0.27233 0.06217,0.0642 0.201613,-0.0641 0.263788,0 0.06217,0.0642 -0.06217,0.20815 0,0.27234 0.06217,0.0641 0.201613,-0.0641 0.26379,0 0.06217,0.0641 -0.06217,0.20813 0,0.27232 0.06217,0.0641 0.201611,-0.0641 0.263787,0 0.06217,0.0641 -0.06217,0.20813 0,0.27233 0.06217,0.0642 0.201615,-0.0641 0.263789,0 0.06217,0.0642 -0.06217,0.20815 0,0.27233 0.01054,0.0115 0.958282,0 1.055156,0 1.406874,0 2.813747,0 4.220622,0 0.06397,0 0.782879,-0.009 0.791365,0 0.06217,0.0641 -0.06217,0.20814 0,0.27232 0.06217,0.0641 0.175859,0 0.263787,0 0.08793,0 0.175859,0 0.263789,0 0.703436,0 1.406873,0 2.110309,0"
         style="fill:#ffe6d5;stroke:#000000;stroke-width:0.33341253px;stroke-linecap:butt;stroke-linejoin:miter;stroke-opacity:1" />
    </g>
  </g>
</svg>
