<?xml version="1.0" encoding="UTF-8" standalone="no"?>
<!-- Created with Inkscape (http://www.inkscape.org/) -->

<svg
   xmlns:dc="http://purl.org/dc/elements/1.1/"
   xmlns:cc="http://creativecommons.org/ns#"
   xmlns:rdf="http://www.w3.org/1999/02/22-rdf-syntax-ns#"
   xmlns:svg="http://www.w3.org/2000/svg"
   xmlns="http://www.w3.org/2000/svg"
   xmlns:sodipodi="http://sodipodi.sourceforge.net/DTD/sodipodi-0.dtd"
   xmlns:inkscape="http://www.inkscape.org/namespaces/inkscape"
   width="256"
   height="256"
   viewBox="0 0 67.733332 67.733335"
   version="1.1"
   id="svg8"
   inkscape:version="0.92.4 (5da689c313, 2019-01-14)"
   sodipodi:docname="amazon - Kopie.svg"
   inkscape:export-filename="C:\Users\samu\Documents\Rainmeter\Skins\SearchBar_ReExtendable_2.01\@Resources\plugins\websearch\icon\png\16x16.png"
   inkscape:export-xdpi="6"
   inkscape:export-ydpi="6">
  <defs
     id="defs2" />
  <sodipodi:namedview
     id="base"
     pagecolor="#ffffff"
     bordercolor="#666666"
     borderopacity="1.0"
     inkscape:pageopacity="0.0"
     inkscape:pageshadow="2"
     inkscape:zoom="1.7592269"
     inkscape:cx="146.01538"
     inkscape:cy="155.25508"
     inkscape:document-units="px"
     inkscape:current-layer="layer1"
     showgrid="false"
     inkscape:window-width="1920"
     inkscape:window-height="1018"
     inkscape:window-x="-8"
     inkscape:window-y="-8"
     inkscape:window-maximized="1"
     showguides="false"
     inkscape:guide-bbox="true"
     units="px"
     inkscape:snap-smooth-nodes="true" />
  <metadata
     id="metadata5">
    <rdf:RDF>
      <cc:Work
         rdf:about="">
        <dc:format>image/svg+xml</dc:format>
        <dc:type
           rdf:resource="http://purl.org/dc/dcmitype/StillImage" />
        <dc:title />
      </cc:Work>
    </rdf:RDF>
  </metadata>
  <g
     inkscape:label="Ebene 1"
     inkscape:groupmode="layer"
     id="layer1"
     transform="translate(0,-229.26665)">
    <g
       id="g845"
       style="fill:none">
      <path
         sodipodi:nodetypes="ccccc"
         inkscape:connector-curvature="0"
         id="rect814"
         d="m 4.4665767,252.12152 56.2044383,0 -4.307059,25.5233 H 10.634708 Z"
         style="fill:none;stroke:#000000;stroke-width:2.11666656;stroke-miterlimit:4;stroke-dasharray:none" />
      <rect
         y="252.25371"
         x="16.576649"
         height="25.232172"
         width="33.562912"
         id="rect817"
         style="fill:none;stroke:#000000;stroke-width:2.04960108;stroke-miterlimit:4;stroke-dasharray:none" />
      <rect
         y="252.12151"
         x="27.838879"
         height="25.523302"
         width="12.171687"
         id="rect819"
         style="fill:none;stroke:#000000;stroke-width:1.84892547;stroke-miterlimit:4;stroke-dasharray:none" />
      <path
         inkscape:connector-curvature="0"
         id="path825"
         d="M 7.4442965,265.30855 H 58.065511"
         style="fill:none;stroke:#000000;stroke-width:2.11666667;stroke-linecap:butt;stroke-linejoin:miter;stroke-opacity:1;stroke-miterlimit:4;stroke-dasharray:none" />
      <path
         inkscape:connector-curvature="0"
         id="path829"
         d="m 56.363954,277.64482 v 8.50776 H 11.272792"
         style="fill:none;stroke:#000000;stroke-width:2.11666667;stroke-linecap:butt;stroke-linejoin:miter;stroke-opacity:1;stroke-miterlimit:4;stroke-dasharray:none" />
      <ellipse
         ry="1.8079005"
         rx="1.7015535"
         cy="289.93704"
         cx="17.228228"
         id="path831"
         style="fill:none;stroke:#000000;stroke-width:2.11666656;stroke-miterlimit:4;stroke-dasharray:none" />
      <ellipse
         ry="2.0205948"
         rx="1.8079005"
         cy="290.08743"
         cx="49.238701"
         id="path833"
         style="fill:none;stroke:#000000;stroke-width:2.11666656;stroke-miterlimit:4;stroke-dasharray:none" />
      <path
         inkscape:connector-curvature="0"
         id="path835"
         d="m 60.61784,252.33421 2.126943,-12.97435 h 2.765026"
         style="fill:none;stroke:#000000;stroke-width:2.11666667;stroke-linecap:butt;stroke-linejoin:miter;stroke-opacity:1;stroke-miterlimit:4;stroke-dasharray:none" />
    </g>
    <path
       style="fill:#ffd42a;stroke:#000000;stroke-width:3.21553421;stroke-miterlimit:4;stroke-dasharray:none"
       d="M 193.73556,159.57624 V 140.484 h 11.0534 c 6.07937,0 11.0527,0.13566 11.05184,0.30146 -0.002,0.42705 -5.98016,35.88264 -6.23475,36.97864 -0.20899,0.89973 -0.25027,0.90437 -8.04028,0.90437 h -7.83021 z"
       id="path849"
       inkscape:connector-curvature="0"
       transform="matrix(0.26458333,0,0,0.26458333,0,229.26665)" />
    <path
       style="fill:#ffd42a;stroke:#000000;stroke-width:3.21553421;stroke-miterlimit:4;stroke-dasharray:none"
       d="M 154.74721,159.37526 V 140.484 h 15.27379 15.27379 v 18.89126 18.89127 H 170.021 154.74721 Z"
       id="path851"
       inkscape:connector-curvature="0"
       transform="matrix(0.26458333,0,0,0.26458333,0,229.26665)" />
    <path
       style="fill:#ffd42a;stroke:#000000;stroke-width:3.21553421;stroke-miterlimit:4;stroke-dasharray:none"
       d="M 108.92585,159.37526 V 140.484 h 19.29321 19.2932 v 18.89126 18.89127 h -19.2932 -19.29321 z"
       id="path853"
       inkscape:connector-curvature="0"
       transform="matrix(0.26458333,0,0,0.26458333,0,229.26665)" />
    <path
       style="fill:#ffd42a;stroke:#000000;stroke-width:3.21553421;stroke-miterlimit:4;stroke-dasharray:none"
       d="M 66.721967,159.37526 V 140.484 H 84.206433 101.6909 v 18.89126 18.89127 H 84.206433 66.721967 Z"
       id="path855"
       inkscape:connector-curvature="0"
       transform="matrix(0.26458333,0,0,0.26458333,0,229.26665)" />
    <path
       style="fill:#ffd42a;stroke:#000000;stroke-width:3.21553421;stroke-miterlimit:4;stroke-dasharray:none"
       d="m 43.409344,178.48815 c 0,-0.26617 -8.83727,-36.91256 -9.043532,-37.50172 -0.138218,-0.3948 2.447572,-0.50243 12.07071,-0.50243 h 12.246609 v 19.09224 19.09223 h -7.636893 c -4.200292,0 -7.636894,-0.0811 -7.636894,-0.18032 z"
       id="path857"
       inkscape:connector-curvature="0"
       transform="matrix(0.26458333,0,0,0.26458333,0,229.26665)" />
    <path
       style="fill:#ffd42a;stroke:#000000;stroke-width:3.21553421;stroke-miterlimit:4;stroke-dasharray:none"
       d="m 32.154975,131.88411 c 0,-0.25958 -9.649251,-40.190521 -9.844387,-40.73846 -0.141453,-0.397199 3.648753,-0.502428 18.096808,-0.502428 h 18.275735 v 20.699998 20.7 H 45.419053 c -7.295243,0 -13.264078,-0.0716 -13.264078,-0.15911 z"
       id="path859"
       inkscape:connector-curvature="0"
       transform="matrix(0.26458333,0,0,0.26458333,0,229.26665)" />
    <path
       style="fill:#ffd42a;stroke:#000000;stroke-width:3.21553421;stroke-miterlimit:4;stroke-dasharray:none"
       d="M 66.721967,111.54419 V 91.045164 H 84.206433 101.6909 v 20.499026 20.49903 H 84.206433 66.721967 Z"
       id="path861"
       inkscape:connector-curvature="0"
       transform="matrix(0.26458333,0,0,0.26458333,0,229.26665)" />
    <path
       style="fill:#ffd42a;stroke:#000000;stroke-width:3.21553421;stroke-miterlimit:4;stroke-dasharray:none"
       d="M 108.92585,111.54419 V 91.045164 h 19.29321 19.2932 v 20.499026 20.49903 h -19.2932 -19.29321 z"
       id="path863"
       inkscape:connector-curvature="0"
       transform="matrix(0.26458333,0,0,0.26458333,0,229.26665)" />
    <path
       style="fill:#ffd42a;stroke:#000000;stroke-width:3.21553421;stroke-miterlimit:4;stroke-dasharray:none"
       d="M 154.74721,111.54419 V 91.045164 h 15.27379 15.27379 v 20.499026 20.49903 H 170.021 154.74721 Z"
       id="path865"
       inkscape:connector-curvature="0"
       transform="matrix(0.26458333,0,0,0.26458333,0,229.26665)" />
    <path
       style="fill:#ffd42a;stroke:#000000;stroke-width:3.21553421;stroke-miterlimit:4;stroke-dasharray:none"
       d="M 193.73556,111.34322 V 90.643222 h 15.27379 c 8.40058,0 15.27379,0.08906 15.27379,0.197903 0,0.108847 -1.53743,9.297985 -3.41651,20.420305 -1.87907,11.12232 -3.4165,20.34826 -3.4165,20.50209 0,0.15384 -5.33578,0.2797 -11.85728,0.2797 h -11.85729 z"
       id="path867"
       inkscape:connector-curvature="0"
       transform="matrix(0.26458333,0,0,0.26458333,0,229.26665)" />
  </g>
</svg>
