<?xml version="1.0" encoding="UTF-8" standalone="no"?>
<!-- Created with Inkscape (http://www.inkscape.org/) -->

<svg
   xmlns:dc="http://purl.org/dc/elements/1.1/"
   xmlns:cc="http://creativecommons.org/ns#"
   xmlns:rdf="http://www.w3.org/1999/02/22-rdf-syntax-ns#"
   xmlns:svg="http://www.w3.org/2000/svg"
   xmlns="http://www.w3.org/2000/svg"
   xmlns:sodipodi="http://sodipodi.sourceforge.net/DTD/sodipodi-0.dtd"
   xmlns:inkscape="http://www.inkscape.org/namespaces/inkscape"
   width="256"
   height="256"
   viewBox="0 0 67.733332 67.733335"
   version="1.1"
   id="svg8"
   inkscape:version="0.92.4 (5da689c313, 2019-01-14)"
   sodipodi:docname="urlopen_small.svg"
   inkscape:export-filename="C:\Users\samu\Documents\Rainmeter\Skins\SearchBar_ReExtendable_2.01\@Resources\plugins\urlopen\icon\png\16x16.png"
   inkscape:export-xdpi="6"
   inkscape:export-ydpi="6">
  <defs
     id="defs2" />
  <sodipodi:namedview
     id="base"
     pagecolor="#ffffff"
     bordercolor="#666666"
     borderopacity="1.0"
     inkscape:pageopacity="0.0"
     inkscape:pageshadow="2"
     inkscape:zoom="3.3242188"
     inkscape:cx="128"
     inkscape:cy="128"
     inkscape:document-units="px"
     inkscape:current-layer="layer1"
     showgrid="false"
     inkscape:window-width="1920"
     inkscape:window-height="1018"
     inkscape:window-x="-8"
     inkscape:window-y="-8"
     inkscape:window-maximized="1"
     showguides="true"
     inkscape:guide-bbox="true"
     units="px"
     inkscape:snap-smooth-nodes="true"
     inkscape:snap-object-midpoints="true" />
  <metadata
     id="metadata5">
    <rdf:RDF>
      <cc:Work
         rdf:about="">
        <dc:format>image/svg+xml</dc:format>
        <dc:type
           rdf:resource="http://purl.org/dc/dcmitype/StillImage" />
        <dc:title />
      </cc:Work>
    </rdf:RDF>
  </metadata>
  <g
     inkscape:label="Ebene 1"
     inkscape:groupmode="layer"
     id="layer1"
     transform="translate(0,-229.26665)">
    <path
       style="fill:#ffffff;stroke:#000000;stroke-width:0.26458332"
       d="m -43.448537,211.67876 c -10e-6,-12.18448 9.87747,-22.06196 22.06195,-22.06196 12.18448,0 22.06196,9.87748 22.06195,22.06196"
       id="path19"
       inkscape:connector-curvature="0"
       sodipodi:nodetypes="csc" />
    <g
       style="fill:#00ffff;stroke-width:1.9291327;stroke-miterlimit:4;stroke-dasharray:none"
       id="g5231"
       transform="matrix(0,-1.3715144,1.3715144,0,-256.4538,233.8013)">
      <path
         sodipodi:nodetypes="scscs"
         inkscape:connector-curvature="0"
         d="m -21.386587,189.6168 c 12.18448,0 22.06196,9.87748 22.06195,22.06196 10e-6,12.18448 -9.87747,22.06196 -22.06195,22.06196 -12.18448,0 -22.06196,-9.87748 -22.06195,-22.06196 -10e-6,-12.18448 9.87747,-22.06196 22.06195,-22.06196 z"
         style="fill:#00ffff;stroke:#000000;stroke-width:1.9291327;stroke-miterlimit:4;stroke-dasharray:none"
         id="path5223" />
    </g>
    <g
       style="fill:none;stroke-width:1.9291327;stroke-miterlimit:4;stroke-dasharray:none"
       transform="matrix(0,-1.3715144,1.3715144,0,-256.4538,233.8013)"
       id="g5217">
      <path
         sodipodi:nodetypes="csc"
         inkscape:connector-curvature="0"
         id="path5205"
         d="m -43.448537,211.67876 c -10e-6,12.18448 9.87747,22.06196 22.06195,22.06196 12.18448,0 22.06196,-9.87748 22.06195,-22.06196"
         style="fill:none;stroke:#000000;stroke-width:1.9291327;stroke-miterlimit:4;stroke-dasharray:none" />
      <g
         style="fill:none;stroke-width:1.9291327;stroke-miterlimit:4;stroke-dasharray:none"
         id="g5215">
        <path
           inkscape:connector-curvature="0"
           id="path5207"
           style="fill:none;stroke:#000000;stroke-width:1.9291327;stroke-miterlimit:4;stroke-dasharray:none"
           d="m -43.448537,211.67876 c -10e-6,-12.18448 9.87747,-22.06196 22.06195,-22.06196 12.18448,0 22.06196,9.87748 22.06195,22.06196" />
        <path
           inkscape:connector-curvature="0"
           id="path5209"
           style="fill:none;stroke:#000000;stroke-width:1.9291327;stroke-miterlimit:4;stroke-dasharray:none"
           d="m -43.448537,211.67876 c -10e-6,-6.09224 9.87747,-11.03098 22.06195,-11.03098 12.18448,0 22.06196,4.93874 22.06195,11.03098" />
        <path
           inkscape:connector-curvature="0"
           id="path5211"
           style="fill:none;stroke:#000000;stroke-width:1.9291327;stroke-miterlimit:4;stroke-dasharray:none"
           d="m -43.448537,211.67876 c -10e-6,0 9.87747,0 22.06195,0 12.18448,0 22.06196,0 22.06195,0" />
        <path
           inkscape:connector-curvature="0"
           id="path5213"
           style="fill:none;stroke:#000000;stroke-width:1.9291327;stroke-miterlimit:4;stroke-dasharray:none"
           d="m -43.448537,211.67876 c -10e-6,6.09224 9.87747,11.03098 22.06195,11.03098 12.18448,0 22.06196,-4.93874 22.06195,-11.03098" />
      </g>
    </g>
    <g
       style="fill:none;stroke-width:2.12204602;stroke-miterlimit:4;stroke-dasharray:none"
       transform="matrix(1.371514,0.000000,0.000000,1.371514,63.000000,-27.000000)"
       id="g575">
      <path
         transform="matrix(1.000000,0.000000,0.000000,1.000000,0.000000,0.000000)"
         sodipodi:nodetypes="csc"
         inkscape:connector-curvature="0"
         id="path282"
         d="M-43.6508182442 212.80542889C-43.6508282802 224.451253897 -33.7377799244 234.483137418 -21.5094241666 234.483137418C-9.28106840868 235.212258666 0.631979947175 225.180375145 0.631969911166 212.80542889"
         style="stroke-dasharray:none;stroke:#000000;stroke-width:0.729121248489;stroke-miterlimit:4;fill:none" />
      <g
         transform="matrix(1.000000,0.000000,0.000000,1.000000,0.000000,0.000000)"
         style="fill:none;stroke-width:2.12204602;stroke-miterlimit:4;stroke-dasharray:none"
         id="g480">
        <path
           transform="matrix(1.000000,0.000000,0.000000,1.000000,0.000000,0.000000)"
           inkscape:connector-curvature="0"
           id="path470"
           style="stroke-dasharray:none;stroke:#000000;stroke-width:0.729121248489;stroke-miterlimit:4;fill:none"
           d="M-43.6508182442 212.80542889C-43.6508282802 200.234553709 -33.7377799244 190.202670187 -21.5094241666 190.202670187C-9.28106840868 190.398599114 0.631979947175 200.430482636 0.631969911166 212.80542889" />
        <path
           transform="matrix(1.000000,0.000000,0.000000,1.000000,0.000000,0.000000)"
           inkscape:connector-curvature="0"
           id="path472"
           style="stroke-dasharray:none;stroke:#000000;stroke-width:0.729121248489;stroke-miterlimit:4;fill:none"
           d="M-43.6508182442 212.076307642C-43.6508282802 205.951910284 -33.7377799244 201.139488914 -21.5094241666 201.139488914C-9.28106840868 201.327468083 0.631979947175 206.139889453 0.631969911166 212.076307642" />
        <path
           transform="matrix(1.000000,0.000000,0.000000,1.000000,0.000000,0.000000)"
           inkscape:connector-curvature="0"
           id="path474"
           style="stroke-dasharray:none;stroke:#000000;stroke-width:0.729121248489;stroke-miterlimit:4;fill:none"
           d="M-43.6508182442 212.80542889C-43.6508282802 212.80542889 -33.7377799244 212.80542889 -21.5094241666 212.80542889C-9.28106840868 212.80542889 0.631979947175 212.80542889 0.631969911166 212.80542889" />
        <path
           transform="matrix(1.000000,0.000000,0.000000,1.000000,0.000000,0.000000)"
           inkscape:connector-curvature="0"
           id="path476"
           style="stroke-dasharray:none;stroke:#000000;stroke-width:0.729121248489;stroke-miterlimit:4;fill:none"
           d="M-43.6508182442 212.80542889C-43.6508282802 218.012725831 -33.7377799244 222.825147201 -21.5094241666 222.825147201C-9.28106840868 223.554268449 0.631979947175 218.741847079 0.631969911166 212.80542889" />
      </g>
    </g>
  </g>
</svg>
